# xmcd
#
# Track frame offsets:
#	150
#	13375
#	28402
#	40991
#	53104
#	64473
#	76290
#	89218
#	102497
#	115020
#	127441
#	139258
#	152828
#	165688
#	178321
#	191361
#	204772
#	217481
#	230364
#	241282
#	255019
#	267899
#	280935
#
# Disc length: 3894 seconds
# Revision: 0
# Processed by: cddbd v1.5.2PL0 Copyright (c) Steve Scherf et al.
# Submitted via: dBpowerAMP V12.0
#
DISCID=610f3417
DTITLE=Dick Reinhart - A Broken Heart for a Souvenir
DYEAR=1900
DGENRE=Country
TTITLE0=Rambling Lover
TTITLE1=Always Marry Your Lover
TTITLE2=No One To Say Goodnight
TTITLE3=Emmaline
TTITLE4=If I Don't Love You
TTITLE5=I'll Take Her Back
TTITLE6=Oh Marie, Oh Maria
TTITLE7=Don't You Remember Me?
TTITLE8=Oloha Means Goodbye
TTITLE9=Little Brown Eyed Girl
TTITLE10=Ruck Tuckin' Baby
TTITLE11=I'm Satisfied in Loving You
TTITLE12=It Won't Do You No Good
TTITLE13=I Trusted You Once Too Often
TTITLE14=Don't Ever Say Adieu
TTITLE15=I Trusted You Once Too Often
TTITLE16=Midnight Patrol
TTITLE17=Cross My Heart
TTITLE18=Utah Trail
TTITLE19=My Mother and Dad
TTITLE20=Why Should I Worry over You
TTITLE21=Untill We Meet Again
TTITLE22=A Broken Heart for A Souvenir
EXTD=
EXTT0=
EXTT1=
EXTT2=
EXTT3=
EXTT4=
EXTT5=
EXTT6=
EXTT7=
EXTT8=
EXTT9=
EXTT10=
EXTT11=
EXTT12=
EXTT13=
EXTT14=
EXTT15=
EXTT16=
EXTT17=
EXTT18=
EXTT19=
EXTT20=
EXTT21=
EXTT22=
PLAYORDER=
